<?xml version="1.0" standalone="no"?>
<!DOCTYPE svg PUBLIC "-//W3C//DTD SVG 1.1//EN" "http://www.w3.org/Graphics/SVG/1.1/DTD/svg11.dtd" >
<svg xmlns="http://www.w3.org/2000/svg">
<metadata>
<json>
<![CDATA[
{
	"fontFamily": "detach-icon-set-2",
	"fontURL": "http://woothemes.com/",
	"designer": "James Koster",
	"designerURL": "http://jameskoster.co.uk/",
	"license": "SIL OFL",
	"licenseURL": "http://scripts.sil.org/cms/scripts/page.php?site_id=nrsi&id=OFL",
	"description": "Font generated by IcoMoon.",
	"majorVersion": 1,
	"minorVersion": 0,
	"copyright": "Copyright © 2015 Perxis.com. All Rights Reserved.",
	"version": "Version 1.0",
	"fontId": "detach-icon-set-2",
	"psName": "detach-icon-set-2",
	"subFamily": "Regular",
	"fullName": "detach-icon-set-2"
}
]]>
</json>
</metadata>
<defs>
<font id="detach-icon-set-2" horiz-adv-x="1024">
<font-face units-per-em="1024" ascent="896" descent="-128" />
<missing-glyph horiz-adv-x="1024" />
<glyph unicode="&#x20;" horiz-adv-x="400" d="" />
<glyph unicode="&#xe900;" glyph-name="uniE900" data-tags="uniE900" d="M526.864 889.728c-8.32 8.342-21.828 8.358-30.17 0.038-0.012-0.012-0.026-0.026-0.038-0.038l-384-384c-8.186-8.474-7.95-21.98 0.524-30.166 8.268-7.984 21.374-7.984 29.64 0l347.606 347.606v-929.834c0-11.782 9.552-21.334 21.334-21.334s21.334 9.552 21.334 21.334v929.834l347.562-347.562c8.186-8.474 21.69-8.71 30.166-0.524 8.474 8.186 8.708 21.69 0.524 30.166-0.172 0.178-0.346 0.352-0.524 0.524l-383.958 383.956z" />
<glyph unicode="&#xe901;" glyph-name="uniE901" data-tags="uniE901" d="M895.76 469.334c-5.662-0.010-11.096 2.23-15.104 6.23l-368.896 368.938-368.896-368.94c-8.474-8.186-21.98-7.95-30.166 0.524-7.984 8.268-7.984 21.374 0 29.64l384 384c8.33 8.328 21.834 8.328 30.166 0l384-384c8.318-8.344 8.298-21.852-0.048-30.17-3.998-3.984-9.412-6.222-15.056-6.222z" />
<glyph unicode="&#xe902;" glyph-name="uniE902" data-tags="uniE902" d="M511.76-128c-11.782 0-21.334 9.552-21.334 21.334v981.332c0 11.782 9.552 21.334 21.334 21.334s21.334-9.552 21.334-21.334v-981.334c-0.002-11.78-9.552-21.332-21.334-21.332z" />
<glyph unicode="&#xe903;" glyph-name="uniE903" data-tags="uniE903" d="M880.874 292.438l-347.562-347.606v929.834c0 11.782-9.552 21.334-21.334 21.334s-21.334-9.552-21.334-21.334v-929.834l-347.562 347.606c-8.474 8.186-21.98 7.95-30.166-0.524-7.984-8.268-7.984-21.374 0-29.64l384-384c8.32-8.342 21.828-8.358 30.17-0.038 0.012 0.012 0.026 0.026 0.038 0.038l384 384c8.186 8.474 7.95 21.98-0.524 30.166-8.268 7.986-21.374 7.986-29.642 0l-0.084-0.002z" />
<glyph unicode="&#xe904;" glyph-name="uniE904" data-tags="uniE904" d="M511.978-128c-5.662-0.010-11.096 2.23-15.104 6.23l-384 384c-8.186 8.474-7.95 21.98 0.524 30.166 8.268 7.984 21.374 7.984 29.64 0l368.938-368.896 368.896 368.896c8.474 8.186 21.98 7.95 30.166-0.524 7.986-8.268 7.986-21.374 0-29.642l-384-384c-3.996-3.988-9.412-6.228-15.060-6.23z" />
<glyph unicode="&#xe905;" glyph-name="uniE905" data-tags="uniE905" d="M511.978-128c-11.782 0-21.334 9.552-21.334 21.334v981.332c0.002 11.782 9.552 21.334 21.334 21.334s21.334-9.552 21.334-21.334v-981.334c0-11.78-9.552-21.332-21.334-21.332z" />
<glyph unicode="&#xe906;" glyph-name="uniE906" data-tags="uniE906" d="M1002.668 405.638h-929.821l347.601 347.557c8.186 8.474 7.95 21.98-0.524 30.166-8.268 7.984-21.374 7.984-29.64 0l-383.994-383.994c-8.342-8.32-8.358-21.828-0.038-30.17 0.012-0.012 0.026-0.026 0.038-0.038l383.994-383.994c8.186-8.474 21.69-8.708 30.166-0.524 8.474 8.186 8.708 21.69 0.524 30.166-0.172 0.178-0.346 0.352-0.524 0.524l-347.603 347.641h929.819c11.782 0 21.334 9.552 21.334 21.334s-9.55 21.334-21.332 21.334z" />
<glyph unicode="&#xe907;" glyph-name="uniE907" data-tags="uniE907" d="M405.344-21.024c-5.662-0.010-11.096 2.23-15.104 6.23l-383.994 383.994c-8.328 8.33-8.328 21.834 0 30.166l383.994 383.994c8.474 8.186 21.98 7.95 30.166-0.524 7.984-8.268 7.984-21.374 0-29.64l-368.89-368.892 368.89-368.89c8.342-8.32 8.358-21.828 0.038-30.17-4.002-4.010-9.434-6.266-15.1-6.268z" />
<glyph unicode="&#xe908;" glyph-name="uniE908" data-tags="uniE908" d="M1002.668 362.97h-981.319c-11.782 0-21.334 9.552-21.334 21.334s9.552 21.334 21.334 21.334h981.319c11.782 0 21.334-9.552 21.334-21.334s-9.552-21.334-21.334-21.334z" />
<glyph unicode="&#xe909;" glyph-name="uniE909" data-tags="uniE909" d="M1022.378 376.092c3.298 7.978 1.462 17.158-4.65 23.254l-384 384c-8.474 8.186-21.98 7.95-30.166-0.524-7.984-8.268-7.984-21.374 0-29.64l347.606-347.606h-929.834c-11.782-0.002-21.334-9.554-21.334-21.336s9.552-21.334 21.334-21.334h929.834l-347.562-347.562c-8.474-8.186-8.71-21.69-0.524-30.166 8.186-8.474 21.69-8.708 30.166-0.524 0.178 0.172 0.352 0.346 0.524 0.524l384 384c1.972 1.982 3.538 4.33 4.606 6.914z" />
<glyph unicode="&#xe90a;" glyph-name="uniE90A" data-tags="uniE90A" d="M618.666-21.092c-11.782-0.022-21.35 9.514-21.372 21.296-0.010 5.68 2.246 11.13 6.268 15.142l368.94 368.894-368.94 368.896c-8.186 8.474-7.95 21.98 0.524 30.166 8.268 7.984 21.374 7.984 29.64 0l384-384c8.328-8.33 8.328-21.834 0-30.166l-384-384c-3.996-3.988-9.412-6.228-15.060-6.228z" />
<glyph unicode="&#xe90b;" glyph-name="uniE90B" data-tags="uniE90B" d="M1002.666 362.908h-981.332c-11.782 0-21.334 9.55-21.334 21.332s9.552 21.334 21.334 21.334h981.334c11.782 0 21.334-9.552 21.334-21.334-0.002-11.782-9.554-21.332-21.336-21.332z" />
<glyph unicode="&#xe90c;" glyph-name="arrow_all" data-tags="arrow_all [, 373]" d="M1024 896v-409.6h-102.4v234.803c-290.304-290.304-206.95-206.95-337.203-337.203 128.768-128.768 219.136-219.136 337.203-337.203v234.803h102.4v-409.6h-409.6v102.4h234.803c-117.965 117.965-210.227 210.227-337.203 337.203l-337.203-337.203h234.803v-102.4h-409.6v409.6h102.4v-234.803l337.203 337.203-337.203 337.203v-234.803h-102.4v409.6h409.6v-102.4h-234.803l337.203-337.203 337.203 337.203h-234.803v102.4h409.6z" />
<glyph unicode="&#xe90d;" glyph-name="arrow_all1" data-tags="arrow_all [, 376]" d="M337.203 281.6l-234.803-234.803v234.803h-102.4v-409.6h409.6v102.4h-234.803l234.803 234.803-72.397 72.397zM614.4 896v-102.4h234.803l-234.803-234.803 72.397-72.397 234.803 234.803v-234.803h102.4v409.6h-409.6zM921.6 46.797l-234.803 234.803-72.397-72.397 234.803-234.803h-234.803v-102.4h409.6v409.6h-102.4v-234.803zM0 896v-409.6h102.4v234.803l232.909-232.909 72.397 72.397-232.909 232.909h234.803v102.4h-409.6z" />
<glyph unicode="&#xe90e;" glyph-name="arrow_all2" data-tags="arrow_all [, 378]" d="M921.6 537.6v121.805c0 22.784-27.597 34.202-43.725 18.074l-293.478-293.478 293.478-293.478c16.128-16.128 43.725-4.71 43.725 18.074v121.805c0 28.262 22.938 51.2 51.2 51.2s51.2-22.938 51.2-51.2v-256c0-56.576-45.824-102.4-102.4-102.4h-256c-28.262 0-51.2 22.938-51.2 51.2s22.938 51.2 51.2 51.2h121.805c22.784 0 34.202 27.597 18.074 43.725l-293.478 293.478c-103.27-103.27-191.13-191.13-293.478-293.478-16.128-16.128-4.71-43.725 18.074-43.725h121.805c28.262 0 51.2-22.938 51.2-51.2s-22.938-51.2-51.2-51.2h-256c-56.576 0-102.4 45.824-102.4 102.4v256c0 28.262 22.938 51.2 51.2 51.2s51.2-22.938 51.2-51.2v-121.805c0-22.784 27.597-34.202 43.725-18.074 108.646 108.646 191.334 191.334 293.478 293.478-103.27 103.27-191.13 191.13-293.478 293.478-16.128 16.128-43.725 4.71-43.725-18.074v-121.805c0-28.262-22.938-51.2-51.2-51.2s-51.2 22.938-51.2 51.2v256c0 56.576 45.824 102.4 102.4 102.4h256c28.262 0 51.2-22.938 51.2-51.2s-22.938-51.2-51.2-51.2h-121.805c-22.784 0-34.202-27.597-18.074-43.725 108.646-108.646 191.334-191.334 293.478-293.478l293.478 293.478c16.128 16.128 4.71 43.725-18.074 43.725h-121.805c-28.262 0-51.2 22.938-51.2 51.2s22.938 51.2 51.2 51.2h256c56.576 0 102.4-45.824 102.4-102.4v-256c0-28.262-22.938-51.2-51.2-51.2s-51.2 22.938-51.2 51.2z" />
<glyph unicode="&#xe90f;" glyph-name="arrow_all3" data-tags="arrow_all [, 381]" d="M921.6-128c56.576 0 102.4 35.84 102.4 92.365v256c0 28.314-22.938 51.2-51.2 51.2v0c-28.262 0-51.2-22.886-51.2-51.2v-121.754c0-22.835-27.597-34.253-43.725-18.125l-154.88 154.88c-19.968 20.019-52.378 20.019-72.397 0v0c-19.968-19.968-19.968-52.378 0-72.397l154.88-149.862c16.128-16.128 4.71-38.707-18.074-38.707h-121.805c-28.262 0-51.2-27.955-51.2-56.218v2.509c0-28.262 22.938-48.691 51.2-48.691h256zM0 527.565c0-28.262 22.938-51.2 51.2-51.2v0c28.262 0 51.2 22.938 51.2 51.2v121.805c0 22.835 27.597 34.253 43.725 18.125l154.88-154.931c19.968-19.968 52.378-19.968 72.397 0v0c19.968 20.019 19.968 52.429 0 72.448l-154.88 159.898c-16.128 16.128-4.71 48.691 18.074 48.691h121.805c28.262 0 51.2 17.92 51.2 46.182v2.509c0 28.262-22.938 53.709-51.2 53.709h-256c-56.576 0-102.4-55.859-102.4-112.435v-256zM1024 793.6c0 56.576-35.84 102.4-92.365 102.4h-256c-28.314 0-51.2-22.938-51.2-51.2s22.886-51.2 51.2-51.2h121.754c22.835 0 34.253-27.597 18.125-43.725l-154.88-154.88c-20.019-19.968-20.019-52.378 0-72.397v0c19.968-19.968 52.378-19.968 72.397 0l149.862 154.88c16.128 16.128 38.707 4.71 38.707-18.074v-121.805c0-28.262 27.955-51.2 56.218-51.2h-2.509c28.262 0 48.691 22.938 48.691 51.2v256zM112.435-128c-56.576 0-112.435 45.824-112.435 102.4v256c0 28.262 25.446 51.2 53.709 51.2h2.509c28.262 0 46.182-22.938 46.182-51.2v-121.805c0-22.784 32.563-34.202 48.691-18.074l159.898 154.88c20.019 19.968 52.429 19.968 72.397 0v0c20.019-20.019 20.019-52.429 0-72.397l-154.88-154.88c-16.128-16.128-4.71-43.725 18.125-43.725h121.805c28.262 0 51.2-22.938 51.2-51.2s-22.938-51.2-51.2-51.2h-256z" />
<glyph unicode="&#xe910;" glyph-name="arrow_down" data-tags="arrow_down [, 348]" d="M1024 384l-71.322 73.472-389.478-389.478v828.006h-102.4v-828.006l-388.403 388.403-72.397-72.397c187.443-187.443 332.595-332.595 512-512l512 512z" />
<glyph unicode="&#xe911;" glyph-name="arrow_down1" data-tags="arrow_down [, 360]" d="M1009.012 327.036c19.985 20.036 19.985 52.474 0 72.459-19.985 20.036-52.338 20.036-72.272 0l-329.618-330.013c-16.1-16.142-44.007-4.714-44.007 18.089v758.055c0 28.287-22.489 50.373-50.703 50.373h-0.204c-28.214 0-51.316-22.086-51.316-50.373v-758.055c0-22.803-27.14-34.231-43.24-18.089l-330.589 331.601c-19.933 20.037-52.185 20.037-72.169 0h0.051c-19.933-19.985-19.933-52.423 0.051-72.459l425.503-426.608c39.918-40.022 104.676-40.022 144.594 0 9.2 9.275 433.17 434.294 423.919 425.019z" />
<glyph unicode="&#xe912;" glyph-name="arrow_in_left" data-tags="arrow_in_left [, 389]" d="M682.342 165.171l0.205 0.154c20.634 19.2 21.76 51.507 2.509 72.090l-48.998 52.275c-15.309 16.384-3.686 43.11 18.688 43.11h318.054c28.314 0 51.2 22.938 51.2 51.2s-22.886 51.2-51.2 51.2h-317.286c-22.528 0-34.048 26.982-18.483 43.264l47.514 49.869c19.558 20.429 18.637 52.89-1.997 72.192-20.429 19.149-52.531 18.176-71.782-2.202l-137.677-145.818c-37.376-39.629-37.222-101.581 0.358-140.954l137.523-144.179c19.2-20.122 50.995-21.094 71.373-2.202zM91.034-128h329.984c50.227 0 90.982 40.755 90.982 91.034v62.925c0 28.058-22.733 50.842-50.842 50.842h-0.666c-28.109 0-50.893-22.784-50.893-50.842v-0.717c0-28.058-22.733-50.842-50.842-50.842h-205.466c-28.109 0-50.893 22.784-50.893 50.842v717.517c0 28.058 22.784 50.842 50.893 50.842h205.466c28.109 0 50.842-22.784 50.842-50.842v-0.717c0-28.058 22.784-50.842 50.893-50.842h0.666c28.109 0 50.842 22.784 50.842 50.842v62.925c0 50.278-40.755 91.034-90.982 91.034h-329.984c-50.278 0-91.034-40.755-91.034-91.034v-841.933c0-50.278 40.755-91.034 91.034-91.034z" />
<glyph unicode="&#xe913;" glyph-name="arrow_left" data-tags="arrow_left [, 334]" horiz-adv-x="563" d="M492.032-128l71.168 71.987-422.963 440.678 420.659 438.272-70.093 73.062c-103.885-108.186-393.882-410.317-490.803-511.334 71.987-75.059 1.792-1.894 492.032-512.666z" />
<glyph unicode="&#xe914;" glyph-name="arrow_left1" data-tags="arrow_left [, 335]" horiz-adv-x="563" d="M544.449 881.034v0c-20.731 19.955-54.292 19.955-74.97 0l-438.423-423.094c-41.409-39.961-41.409-104.789 0-144.75l441.604-426.216c20.519-19.75 53.656-20.006 74.44-0.511v0c21.261 19.903 21.473 52.701 0.583 72.912l-404.172 389.99c-20.731 20.006-20.731 52.394 0 72.4l400.937 386.92c20.731 19.955 20.731 52.343 0 72.349z" />
<glyph unicode="&#xe915;" glyph-name="arrow_left2" data-tags="arrow_left [, 350]" d="M512-128l73.472 71.322-389.478 389.478h828.006v102.4h-828.006l388.403 388.403-72.397 72.397c-187.443-187.443-332.595-332.595-512-512 203.059-203.059 59.699-59.699 512-512z" />
<glyph unicode="&#xe916;" glyph-name="arrow_left3" data-tags="arrow_left [, 352]" d="M1024 824.602l-70.836 71.398-850.651-852.778v545.829h-102.513v-717.051h721.229l1.538 102.436h-551.365z" />
<glyph unicode="&#xe917;" glyph-name="arrow_left4" data-tags="arrow_left [, 356]" d="M102.144-127.949h569.754c27.597 0 44.902 22.272 44.902 49.869v1.434c0 28.16-16.691 51.098-44.851 51.098h-437.709c-22.835 0-34.202 27.648-18.074 43.776l792.934 791.501c19.763 19.712 19.763 51.763 0.051 71.475v0c-19.763 19.763-51.712 19.712-71.424-0.051l-791.757-793.549c-16.128-16.128-43.571-4.762-43.571 18.074v432.845c0 27.853-22.835 50.33-50.739 50.33h-1.434c-27.904 0-50.227-22.477-50.227-50.33v-563.917c0-56.576 45.568-102.554 102.144-102.554z" />
<glyph unicode="&#xe918;" glyph-name="arrow_left5" data-tags="arrow_left [, 361]" d="M454.643-113.011c20.019-19.986 52.429-19.986 72.397 0 20.019 19.985 20.019 52.34 0 72.274l-329.728 329.172c-16.128 16.101-4.71 43.6 18.074 43.6h757.402c28.262 0 51.2 23.359 51.2 51.574v0.204c0 28.215-22.938 50.449-51.2 50.449h-757.402c-22.784 0-34.202 27.55-18.074 43.651l331.315 330.808c20.019 19.985 20.019 52.34 0 72.326v0c-19.968 19.935-52.378 19.935-72.397 0l-426.24-425.573c-39.987-39.92-39.987-104.63 0-144.55 10.394-10.376 432.896-432.166 424.653-423.937z" />
<glyph unicode="&#xe919;" glyph-name="arrow_left_up" data-tags="arrow_left_up [, 353]" d="M952.683-128l71.317 71.322-853.086 850.278h546.352v102.4h-717.266v-721.562l102.467-1.536v550.758z" />
<glyph unicode="&#xe91a;" glyph-name="arrow_left_up1" data-tags="arrow_left_up [, 357]" d="M0 793.805v-569.754c0-27.597 22.272-44.851 49.818-44.851h1.434c28.16 0 51.149 16.64 51.149 44.8v437.709c0 22.835 27.648 34.202 43.725 18.074l791.552-792.934c19.712-19.763 51.712-19.763 71.424-0.051v0c19.763 19.763 19.712 51.712 0 71.424l-793.6 791.808c-16.128 16.077-4.762 43.571 18.074 43.571h432.845c27.853 0 50.381 22.784 50.381 50.688v1.434c0 27.904-22.528 50.278-50.381 50.278h-563.917c-56.576 0-102.502-45.619-102.502-102.195z" />
<glyph unicode="&#xe91b;" glyph-name="arrow_right" data-tags="arrow_right [, 333]" horiz-adv-x="563" d="M71.168 896l-71.168-71.987 422.963-440.678-420.659-438.272 70.093-73.062c103.885 108.186 393.882 410.317 490.803 511.334-71.987 75.059-1.792 1.894-492.032 512.666z" />
<glyph unicode="&#xe91c;" glyph-name="arrow_right1" data-tags="arrow_right [, 336]" horiz-adv-x="563" d="M18.732-113.034v0c20.732-19.955 54.294-19.955 74.973 0l438.438 423.094c41.41 39.961 41.41 104.789 0 144.75l-441.619 426.216c-20.519 19.75-53.658 20.006-74.443 0.511v0c-21.209-19.903-21.474-52.701-0.583-72.912l404.186-389.99c20.732-20.006 20.732-52.394 0-72.4l-400.951-386.92c-20.732-19.955-20.732-52.394 0-72.349z" />
<glyph unicode="&#xe91d;" glyph-name="arrow_right2" data-tags="arrow_right [, 349]" d="M512 896l-73.472-71.322 389.478-389.478h-828.006v-102.4h828.006l-388.403-388.403 72.397-72.397c187.443 187.443 332.595 332.595 512 512l-512 512z" />
<glyph unicode="&#xe91e;" glyph-name="arrow_right3" data-tags="arrow_right [, 355]" d="M71.475 896l-71.475-71.45 852.378-850.186h-545.229v-102.364h716.8v721.668l-102.4 1.535v-550.566z" />
<glyph unicode="&#xe91f;" glyph-name="arrow_right4" data-tags="arrow_right [, 359]" d="M1023.981-26.402v570.135c0 27.615-22.323 45.548-49.92 45.548h-1.434c-28.16 0-51.046-17.317-51.046-45.496v-438.002c0-22.85-27.648-34.224-43.776-18.085l-791.552 793.465c-19.712 19.777-51.763 19.777-71.475 0.051v0c-19.712-19.777-19.712-51.798 0.051-71.472l793.549-791.98c16.179-16.139 4.762-43.293-18.074-43.293h-432.845c-27.853 0-50.278-23.465-50.278-51.388v-1.435c0-27.923 22.426-49.646 50.278-49.646h563.917c56.576 0 102.605 44.984 102.605 101.598z" />
<glyph unicode="&#xe920;" glyph-name="arrow_right5" data-tags="arrow_right [, 363]" d="M569.737 881.012c-20.002 19.984-52.385 19.984-72.336 0-20.002-19.985-20.002-52.338 0-72.272l329.452-329.618c16.114-16.1 4.706-44.007-18.058-44.007h-756.768c-28.239 0-52.027-22.489-52.027-50.702v-0.204c0-28.214 23.788-51.316 52.027-51.316h756.768c22.765 0 34.173-27.14 18.058-43.24l-331.038-330.589c-20.002-19.933-20.002-52.185 0-72.169v0.051c19.951-19.934 52.334-19.934 72.336 0.051l425.883 425.503c39.954 39.918 39.954 104.676 0 144.594-9.259 9.2-433.557 433.17-424.297 423.919z" />
<glyph unicode="&#xe921;" glyph-name="arrow_right6" data-tags="arrow_right [, 368]" horiz-adv-x="819" d="M409.6 158.72h238.715l-132.792 132.833 57.917 57.917 231.711-231.711c-84.623-84.623-149.586-149.586-231.711-231.711l-57.917 57.917 132.792 132.833h-238.715c-226.222 0-409.6 183.378-409.6 409.6s183.378 409.6 409.6 409.6h409.6v-81.92h-409.6c-180.961 0-327.68-146.719-327.68-327.68s146.719-327.68 327.68-327.68z" />
<glyph unicode="&#xe922;" glyph-name="arrow_right7" data-tags="arrow_right [, 370]" horiz-adv-x="819" d="M81.92 158.63h566.395l-132.792 132.849 57.917 57.925 231.711-231.739c-84.623-84.634-149.586-149.604-231.711-231.739l-57.917 57.924 132.792 132.85h-648.315v819.3h819.2v-81.93h-737.28v-655.44z" />
<glyph unicode="&#xe923;" glyph-name="arrow_right_up" data-tags="arrow_right_up [, 354]" d="M0-56.422l71.322-71.424 850.278 852.378v-545.331h102.4v716.8h-721.562l-1.536-102.4h550.758z" />
<glyph unicode="&#xe924;" glyph-name="arrow_right_up1" data-tags="arrow_right_up [, 358]" d="M922.079 896h-569.935c-27.606 0-45.173-22.674-45.173-50.262v-1.434c0-28.15 16.953-50.671 45.122-50.671h437.848c22.842 0 34.213-27.844 18.079-43.915l-793.187-791.392c-19.769-19.706-19.769-51.798-0.051-71.503v-0.051c19.769-19.705 51.78-19.705 71.447 0.051l791.856 793.337c16.133 16.122 43.483 4.709 43.483-18.068v-432.753c0-27.844 23.099-49.903 51.011-49.903h1.434c27.913 0 49.987 22.060 49.987 49.903v563.73c0 56.557-45.326 102.929-101.921 102.929z" />
<glyph unicode="&#xe925;" glyph-name="arrow_up" data-tags="arrow_up [, 351]" d="M0 384l71.322-73.472 389.478 389.478v-828.006h102.4v828.006l388.403-388.403 72.397 72.397c-187.443 187.443-332.595 332.595-512 512-203.059-203.059-59.699-59.699-512-512z" />
<glyph unicode="&#xe926;" glyph-name="arrow_up1" data-tags="arrow_up [, 362]" d="M420.845 847.887l-405.894-406.564c-19.934-19.967-19.934-52.376 0-72.394v0c19.985-19.967 52.34-19.967 72.326 0l329.173 329.766c16.101 16.127 43.6 4.71 43.6-18.124v-757.373c0-28.261 23.308-51.198 51.574-51.198h0.153c28.266 0 50.5 22.937 50.5 51.198v757.373c0 22.834 27.55 34.251 43.651 18.124l330.808-331.354c19.934-20.019 52.34-20.019 72.275 0v0c19.985 19.967 19.985 52.427 0 72.394l-425.522 426.275c-39.92 39.986-104.63 39.986-144.55 0l-18.094-18.124z" />
<glyph unicode="&#xe927;" glyph-name="bag_circle" data-tags="bag_circle [, 1120]" d="M566.477 635.936h-261.442v43.344c0 71.691 58.65 130.032 130.721 130.032s130.721-43.344 130.721-130.032v-43.344zM727.438 512.016l31.983-222.831c26.841 9.839 55.6 15.517 85.753 16.037l-36.82 256.293c-6.144 42.694-42.92 74.421-86.276 74.421h-68.454v43.344c0 130.032-97.736 216.72-217.868 216.72s-217.868-97.22-217.868-216.72v-43.344h-55.121c-43.399 0-93.465-31.728-99.609-74.421l-62.267-433.439c-7.495-52.23 33.247-98.954 86.276-98.954h501.925c-6.144 0 8.279 80.707 9.15 86.688h-460.835c-26.493 0-46.885 23.362-43.138 49.455l49.805 346.751c3.094 21.369 21.482 37.233 43.138 37.233h30.676v-86.688c0-23.926 19.521-43.344 43.574-43.344s43.574 19.418 43.574 43.344v86.688h261.442v-86.688c0-23.926 19.521-43.344 43.574-43.344s43.574 19.418 43.574 43.344v86.688h30.676c21.656 0 40.044-15.864 43.138-37.233v0zM849.705-41.312c-48.062 0-87.147 38.879-87.147 86.688s39.086 86.688 87.147 86.688c48.062 0 87.147-38.88 87.147-86.688s-39.086-86.688-87.147-86.688v0zM849.705 218.751c-96.254 0-174.295-77.629-174.295-173.376s78.040-173.376 174.295-173.376c96.254 0 174.295 77.629 174.295 173.376s-78.040 173.376-174.295 173.376v0z" />
<glyph unicode="&#xe928;" glyph-name="ball" data-tags="ball [, 783]" d="M102.4 384c0 106.445 41.165 203.213 107.93 276.122-3.277-23.398-5.53-47.053-5.53-71.322 0-282.778 229.222-512 512-512 24.269 0 47.923 2.253 71.322 5.53-72.909-66.765-169.677-107.93-276.122-107.93-225.843 0-409.6 183.757-409.6 409.6zM880.23 205.773c-3.277 1.229-6.605 2.253-9.83 3.584-149.914 60.928-256 207.923-256 379.443 0 63.949 15.155 124.262 41.37 178.227 155.034-58.368 265.83-207.821 265.83-383.027 0-60.006-13.261-116.838-36.557-168.243-1.536-3.379-3.226-6.656-4.813-9.984zM553.882 791.45c-26.88-62.157-41.882-130.662-41.882-202.65 0-167.731 81.050-307.2 205.67-409.6h-0.87c-225.843 0-409.6 183.757-409.6 409.6 0 60.006 13.312 116.838 36.557 168.243 51.405 23.296 108.237 36.557 168.243 36.557 14.131 0 28.109-0.717 41.882-2.15zM0 384c0-282.778 229.222-512 512-512 171.52 0 322.97 84.634 415.898 214.118 12.186 16.998 23.706 34.509 33.792 52.992 7.475 13.67 14.234 27.802 20.429 42.24 17.818 41.216 29.901 85.35 36.352 131.328 3.277 23.398 5.53 47.053 5.53 71.322 0 211.354-128.102 392.653-310.784 470.835-33.331 14.285-68.557 24.883-105.114 31.846-31.13 5.939-63.232 9.318-96.102 9.318-24.269 0-47.923-2.253-71.322-5.53-62.054-8.704-120.73-27.955-173.568-56.781-159.13-86.835-267.11-255.642-267.11-449.69z" />
<glyph unicode="&#xe929;" glyph-name="calendar" data-tags="calendar [, 1194]" d="M102.4-25.6v614.4h819.2v-614.4h-819.2zM921.6 793.6v102.4h-102.4v-102.4h-256v102.4h-102.4v-102.4h-256v102.4h-102.4v-102.4h-102.4v-921.6h1024v921.6h-102.4z" />
<glyph unicode="&#xe92a;" glyph-name="calendar1" data-tags="calendar [, 1195]" d="M460.8 332.8v-204.8h102.4v307.2h-204.8v-102.4h102.4zM102.4-25.6v614.4h819.2v-614.4h-819.2zM921.6 793.6v102.4h-102.4v-102.4h-256v102.4h-102.4v-102.4h-256v102.4h-102.4v-102.4h-102.4v-921.6h1024v921.6h-102.4z" />
<glyph unicode="&#xe92b;" glyph-name="calendar2" data-tags="calendar [, 1196]" d="M921.6 25.6c0-28.262-22.938-51.2-51.2-51.2h-716.8c-28.262 0-51.2 22.938-51.2 51.2v512c0 28.262 22.938 51.2 51.2 51.2h716.8c28.262 0 51.2-22.938 51.2-51.2v-512zM921.6 793.6v51.2c0 28.262-22.938 51.2-51.2 51.2s-51.2-22.938-51.2-51.2v-51.2h-256v51.2c0 28.262-22.938 51.2-51.2 51.2s-51.2-22.938-51.2-51.2v-51.2h-256v51.2c0 28.262-22.938 51.2-51.2 51.2s-51.2-22.938-51.2-51.2v-51.2c-56.576 0-102.4-45.824-102.4-102.4v-716.8c0-56.525 45.824-102.4 102.4-102.4h819.2c56.576 0 102.4 45.875 102.4 102.4v716.8c0 56.576-45.824 102.4-102.4 102.4v0z" />
<glyph unicode="&#xe92c;" glyph-name="calendar3" data-tags="calendar [, 1197]" d="M563.2 332.8v-153.6c0-28.262-22.938-51.2-51.2-51.2s-51.2 22.938-51.2 51.2v102.4c0 28.262-22.938 51.2-51.2 51.2s-51.2 22.938-51.2 51.2c0 28.262 22.938 51.2 51.2 51.2h51.2c56.576 0 102.4-45.824 102.4-102.4v0zM921.6 25.6c0-28.262-22.938-51.2-51.2-51.2h-716.8c-28.262 0-51.2 22.938-51.2 51.2v512c0 28.262 22.938 51.2 51.2 51.2h716.8c28.262 0 51.2-22.938 51.2-51.2v-512zM921.6 793.6v51.2c0 28.262-22.938 51.2-51.2 51.2s-51.2-22.938-51.2-51.2v-51.2h-256v51.2c0 28.262-22.938 51.2-51.2 51.2s-51.2-22.938-51.2-51.2v-51.2h-256v51.2c0 28.262-22.938 51.2-51.2 51.2s-51.2-22.938-51.2-51.2v-51.2c-56.576 0-102.4-45.824-102.4-102.4v-716.8c0-56.525 45.824-102.4 102.4-102.4h819.2c56.576 0 102.4 45.875 102.4 102.4v716.8c0 56.576-45.824 102.4-102.4 102.4v0z" />
<glyph unicode="&#xe92d;" glyph-name="calendar4" data-tags="calendar [, 1322]" d="M920.128 486.4h-817.891v155.085c0 27.443 22.236 49.715 49.636 49.715h52.601v-102.4h102.236v102.4h408.946v-102.4h102.236v102.4h51.118c28.217 0 51.118-22.938 51.118-51.2v-153.6zM920.128 25.6c0-28.16-23.003-51.2-51.118-51.2h-715.655c-28.217 0-51.118 22.938-51.118 51.2v358.4h817.891v-358.4zM3.272-13.363c0-56.525 49.022-114.637 105.457-114.637h817.891c56.486 0 97.38 52.275 97.38 114.637 0 19.917-1.636 634.931-1.636 668.314 0 106.598-14.364 138.65-204.473 138.65v102.4h-102.236v-102.4h-408.946v102.4h-102.236v-102.4h-102.236c-56.23 0-102.236-46.080-102.236-102.4l3.272-704.563z" />
<glyph unicode="&#xe92e;" glyph-name="cart_round" data-tags="cart_round [, 1166]" d="M972.81 896h-153.6c-56.576 0-102.4-45.824-102.4-102.4v-512h-512v256.102c0 28.211 22.886 51.098 51.098 51.098h204.902c28.262 0 51.2 22.938 51.2 51.2s-22.938 51.2-51.2 51.2h-256c-56.576 0-102.4-45.824-102.4-102.4v-419.021c-68.454-24.32-114.893-95.078-99.43-174.899 11.725-60.262 61.389-109.261 121.754-120.269 9.779-1.741 19.405-2.611 28.877-2.611 84.838 0 153.6 68.762 153.6 153.6 0 66.765-42.854 123.034-102.4 144.179v9.421h512v-9.421c-68.454-24.32-114.893-95.078-99.43-174.899 11.725-60.262 61.389-109.261 121.754-120.269 9.779-1.741 19.405-2.611 28.877-2.611 84.838 0 153.6 68.762 153.6 153.6 0 66.765-42.854 123.034-102.4 144.179v572.723c0 28.211 22.886 51.098 51.098 51.098h102.502c28.262 0 51.2 22.938 51.2 51.2s-22.938 51.2-51.2 51.2zM153.61 79.309l16.896-5.99c17.101-6.093 34.304-23.194 34.304-47.718 0-28.211-22.989-51.2-51.2-51.2-3.43 0-6.963 0.307-10.547 0.973-18.893 3.43-35.891 20.224-39.526 39.014-5.888 30.31 13.056 51.763 33.178 58.931l16.896 5.99zM768.010 79.309l16.896-5.99c17.101-6.093 34.304-23.194 34.304-47.718 0-28.211-22.989-51.2-51.2-51.2-3.43 0-6.963 0.307-10.547 0.973-18.893 3.43-35.891 20.224-39.526 39.014-5.888 30.31 13.056 51.763 33.178 58.931l16.896 5.99z" />
<glyph unicode="&#xe92f;" glyph-name="cart_round1" data-tags="cart_round [, 1169]" d="M768.010-25.6c-28.211 0-51.2 22.989-51.2 51.2s22.989 51.2 51.2 51.2c28.211 0 51.2-22.989 51.2-51.2s-22.989-51.2-51.2-51.2v0zM204.81 281.6v256c0 28.262 22.938 51.2 51.2 51.2h460.8v-307.2h-512zM153.61-25.6c-28.211 0-51.2 22.989-51.2 51.2s22.989 51.2 51.2 51.2c28.211 0 51.2-22.989 51.2-51.2s-22.989-51.2-51.2-51.2v0zM204.81 691.2c-56.576 0-102.4-45.824-102.4-102.4v-419.021c-68.454-24.32-114.893-95.078-99.43-174.899 11.725-60.262 61.389-109.261 121.754-120.269 97.536-17.715 182.477 56.73 182.477 150.989 0 66.765-42.854 123.034-102.4 144.179v9.421h512v-9.421c-68.454-24.32-114.893-95.078-99.43-174.899 11.725-60.262 61.389-109.261 121.754-120.269 97.536-17.715 182.477 56.73 182.477 150.989 0 66.765-42.854 123.034-102.4 144.179v572.621c0 28.262 22.938 51.2 51.2 51.2h102.4c28.262 0 51.2 22.938 51.2 51.2s-22.938 51.2-51.2 51.2h-153.6c-56.576 0-102.4-45.824-102.4-102.4v-102.4h-512z" />
<glyph unicode="&#xe930;" glyph-name="close" data-tags="close [, 1511]" horiz-adv-x="1075" d="M615.337 384l459.863-437.965-77.791-74.035-459.809 437.965-459.863-437.965-77.737 74.035 459.809 437.965-459.809 437.965 77.737 74.035 459.863-437.965 459.809 437.965 77.791-74.035z" />
<glyph unicode="&#xe931;" glyph-name="coffee" data-tags="coffee [, 689]" d="M115.38 611.562c31.845 0 57.69 25.486 57.69 56.888v170.663c0 31.402-25.845 56.888-57.69 56.888s-57.69-25.486-57.69-56.888v-170.663c0-31.402 25.845-56.888 57.69-56.888v0zM807.662 384.011h-115.38v-170.663h115.38c134.591 0 134.591 170.663 0 170.663v0zM576.901 384.011h-403.831c-31.845 0-57.69-25.486-57.69-56.887v-103.991c0-118.838 88.093-224.99 208.088-236.254 137.649-12.97 253.433 93.41 253.433 226.47v170.663zM807.662 99.573h-135.514c-51.863-144.437-199.031-244.39-367.255-225.218-176.359 20.138-304.892 175.84-304.892 350.94v158.717c0 62.861 51.633 113.776 115.38 113.776h692.282c288.451 0 288.451-398.214 0-398.214v0zM576.901 611.562c31.845 0 57.69 25.486 57.69 56.888v170.663c0 31.402-25.845 56.888-57.69 56.888s-57.69-25.486-57.69-56.888v-170.663c0-31.402 25.845-56.888 57.69-56.888v0zM288.451 668.45v170.663c0 31.402 25.845 56.888 57.69 56.888s57.69-25.486 57.69-56.888v-170.663c0-31.402-25.845-56.888-57.69-56.888s-57.69 25.486-57.69 56.888v0z" />
<glyph unicode="&#xe932;" glyph-name="coffee1" data-tags="coffee [, 809]" d="M57.69 611.556h115.38v284.444h-115.38v-284.444zM807.662 384h-115.38v-170.667h115.38c134.591 0 134.591 170.667 0 170.667v0zM576.901 384h-461.521v-170.667c0-125.668 103.323-227.556 230.761-227.556s230.761 101.888 230.761 227.556v170.667zM807.662 99.556h-135.514c-47.537-132.494-175.378-227.556-326.007-227.556-191.185 0-346.141 152.804-346.141 341.333v284.444h807.662c288.451 0 288.451-398.222 0-398.222v0zM519.211 611.556h115.38v284.444h-115.38v-284.444zM288.451 611.556h115.38v284.444h-115.38v-284.444z" />
<glyph unicode="&#xe933;" glyph-name="diamond" data-tags="diamond [, 768]" horiz-adv-x="1205" d="M974.607 896h-744.568l-230.039-360.089 602.353-663.911 602.353 676.75-230.099 347.25zM909.252 777.667l144.745-218.444-452.548-508.361-451.343 497.415 146.552 229.39h612.593z" />
<glyph unicode="&#xe934;" glyph-name="diamond1" data-tags="diamond [, 769]" horiz-adv-x="1280" d="M590.33 52.169l-430.72 442.296c-18.944 21.043-21.568 51.882-6.4 75.706l143.488 172.583c11.712 18.326 32.192 26.858 54.208 26.858h577.92c21.568 0 41.664-8.026 53.504-25.846l141.44-163.357c15.808-23.698 13.632-54.22-5.248-75.58l-432.192-452.533c-25.344-28.627-70.4-28.564-96-0.126zM966.394 896h-650.88c-44.032 0-84.992-19.716-108.416-56.559l-187.52-243.613c-30.272-47.649-25.024-108.63 12.864-150.655l511.36-530.957c51.264-56.748 141.248-56.179 191.936 1.075l512.64 543.091c37.696 42.593 42.176 104.776 10.88 152.172l-185.536 230.659c-23.616 35.831-64 54.789-107.328 54.789z" />
<glyph unicode="&#xe935;" glyph-name="drink_round" data-tags="drink_round [, 681]" horiz-adv-x="614" d="M512 520.141c0-113.101-91.699-204.8-204.8-204.8s-204.8 91.699-204.8 204.8v273.459h409.6v-273.459zM0 896v-375.859c0-152.166 102.4-278.17 256-302.592v-243.149h-102.4v-102.4h307.2v102.4h-102.4v243.149c153.6 24.422 256 150.426 256 302.592v375.859h-614.4z" />
<glyph unicode="&#xe936;" glyph-name="drink_round1" data-tags="drink_round [, 686]" horiz-adv-x="819" d="M482.611-25.6h-146.074c-25.242 0-46.746 18.432-50.586 43.418l-64.205 417.382h375.654l-64.205-417.382c-3.84-24.986-25.293-43.418-50.586-43.418v0zM460.8 537.6v204.8c0 28.262 22.886 51.2 51.2 51.2h102.4c28.262 0 51.2 22.938 51.2 51.2s-22.938 51.2-51.2 51.2h-153.6c-56.576 0-102.4-45.824-102.4-102.4v-256h-307.2c-28.314 0-51.2-22.938-51.2-51.2s22.886-51.2 51.2-51.2h66.918l73.318-476.365c7.68-49.971 50.637-86.835 101.222-86.835h233.882c50.534 0 93.542 36.864 101.222 86.835l73.267 476.365h66.97c28.262 0 51.2 22.938 51.2 51.2s-22.938 51.2-51.2 51.2h-307.2z" />
<glyph unicode="&#xe937;" glyph-name="instagram" data-tags="instagram [, 167]" d="M300.526 889.716c-83.348-3.761-155.589-24.139-213.922-82.226-58.537-58.392-78.661-130.912-82.431-213.392-2.344-51.481-16.048-440.404 23.69-542.4 26.798-68.81 79.578-121.713 149.017-148.597 32.402-12.603 69.388-21.141 123.646-23.631 453.674-20.531 621.846-9.351 692.763 172.228 12.584 32.322 21.244 69.267 23.639 123.39 20.735 454.837-3.362 553.428-82.431 632.402-62.714 62.559-136.484 105.146-633.972 82.226zM304.704-29.055c-49.672 2.236-76.623 10.52-94.607 17.482-45.24 17.584-79.221 51.429-96.695 96.405-30.262 77.5-20.226 445.588-17.525 505.149 2.649 58.341 14.469 111.651 55.633 152.815 50.946 50.82 116.768 75.722 564.94 55.495 58.486-2.642 111.928-14.433 153.194-55.495 50.946-50.82 76.215-117.139 55.633-563.592-2.242-49.549-10.546-76.433-17.525-94.372-46.106-118.156-152.176-134.57-603.047-113.887zM721.391 655.895c0-33.643 27.358-60.984 61.135-60.984s61.186 27.341 61.186 60.984c0 33.642-27.409 60.984-61.186 60.984s-61.135-27.341-61.135-60.984zM248.969 384.618c0-144.125 117.125-260.96 261.607-260.96s261.608 116.835 261.608 260.96c0 144.125-117.125 260.909-261.608 260.909s-261.607-116.784-261.607-260.909zM340.773 384.618c0 93.508 76.011 169.382 169.803 169.382s169.803-75.874 169.803-169.382c0-93.559-76.011-169.433-169.803-169.433s-169.803 75.874-169.803 169.433z" />
<glyph unicode="&#xe938;" glyph-name="lock_close" data-tags="lock_close [, 705]" horiz-adv-x="717" d="M102.4-25.6v512h512v-512h-512zM256 691.2c0 56.474 45.926 102.4 102.4 102.4s102.4-51.2 102.4-102.4v-102.4h-204.8v102.4zM563.2 588.8v102.4c0 102.4-91.699 204.8-204.8 204.8s-204.8-91.699-204.8-204.8v-102.4h-153.6v-716.8h716.8v716.8h-153.6z" />
<glyph unicode="&#xe939;" glyph-name="message_three_points" data-tags="message_three_points [, 1560]" d="M863.884 387.072c0-56.576-45.824-102.4-102.4-102.4s-102.4 45.824-102.4 102.4c0 56.576 45.824 102.4 102.4 102.4s102.4-45.824 102.4-102.4zM607.884 387.072c0-56.576-45.824-102.4-102.4-102.4s-102.4 45.824-102.4 102.4c0 56.576 45.824 102.4 102.4 102.4s102.4-45.824 102.4-102.4zM351.884 387.072c0-56.576-45.824-102.4-102.4-102.4s-102.4 45.824-102.4 102.4c0 56.576 45.824 102.4 102.4 102.4s102.4-45.824 102.4-102.4zM893.016-25.6c0 0-133.939 38.042-226.458 38.042-75.469 0-92.672-13.363-156.723-13.363-208.896 0-377.651 154.112-403.558 341.35-34.406 248.525 163.482 453.222 403.558 453.171 201.882 0 360.704-138.394 398.080-311.45 13.722-63.232 12.339-126.003-3.994-186.522-19.456-71.936-18.586-152.832 2.509-233.882 10.803-41.421 30.669-87.347-13.414-87.347zM1019.788 32.819c0 0-14.182 54.528-14.234 54.733-15.514 59.392-18.842 122.112-2.816 181.35 19.763 73.011 23.091 152.576 5.274 234.906-47.104 217.856-247.091 392.192-498.176 392.192-305.050 0.051-547.482-262.502-504.986-569.6 32.87-237.619 244.531-429.722 504.986-429.722 75.213 0 90.368 13.363 156.774 13.363 80.077 0 193.331-33.894 193.331-33.894 96.666-24.218 184.525 61.901 159.846 156.672z" />
<glyph unicode="&#xe93a;" glyph-name="minus" data-tags="minus [, 1514]" horiz-adv-x="1075" d="M107.52-25.6v819.2h860.16v-819.2h-860.16zM0-128h1075.2v1024h-1075.2v-1024zM268.8 332.8v102.4h537.6v-102.4h-537.6z" />
<glyph unicode="&#xe93b;" glyph-name="minus1" data-tags="minus [, 1515]" horiz-adv-x="1344" d="M134.4 0v768h1075.2v-768h-1075.2zM0-128h1344v1024h-1344v-1024zM336 320v128h672v-128h-672z" />
<glyph unicode="&#xe93c;" glyph-name="money_round" data-tags="money_round [, 1184]" horiz-adv-x="1138" d="M113.778 725.333v56.889c0 62.862 50.916 113.778 113.778 113.778h682.667c62.862 0 113.778-50.916 113.778-113.778v-56.889c0-31.403-25.486-56.889-56.889-56.889s-56.889 25.486-56.889 56.889c0 31.403-25.486 56.889-56.889 56.889h-568.889c-31.403 0-56.889-25.486-56.889-56.889s-25.486-56.889-56.889-56.889c-31.403 0-56.889 25.486-56.889 56.889v0zM682.667 213.333c0-62.862-50.916-113.778-113.778-113.778s-113.778 50.916-113.778 113.778c0 62.862 50.916 113.778 113.778 113.778s113.778-50.916 113.778-113.778v0zM1024 346.624l-94.265 94.265c92.672 0 94.265-21.845 94.265-94.265v0zM929.735-14.222l94.265 94.265c0-92.558-21.618-94.265-94.265-94.265v0zM368.924-14.222l-227.556 227.556 227.556 227.556h399.929l227.556-227.556-227.556-227.556h-399.929zM113.778 80.043l94.265-94.265c-92.558 0-94.265 21.618-94.265 94.265v0zM208.043 440.889l-94.265-94.265c0 92.672 21.845 94.265 94.265 94.265v0zM1024 554.667h-910.222c-62.862 0-113.778-50.916-113.778-113.778v-455.111c0-62.862 50.916-113.778 113.778-113.778h910.222c62.862 0 113.778 50.916 113.778 113.778v455.111c0 62.862-50.916 113.778-113.778 113.778v0z" />
<glyph unicode="&#xe93d;" glyph-name="plus" data-tags="plus [, 1512]" horiz-adv-x="1075" d="M1075.2 435.2v-102.4h-483.84v-460.8h-107.52v460.8h-483.84v102.4h483.84v460.8h107.52v-460.8z" />
<glyph unicode="&#xe93e;" glyph-name="plus1" data-tags="plus [, 1513]" horiz-adv-x="1075" d="M107.52-25.6v819.2h860.16v-819.2h-860.16zM0-128h1075.2v1024h-1075.2v-1024zM483.84 332.8v-153.6h107.52v153.6h161.28v102.4h-161.28v153.6h-107.52v-153.6h-161.28v-102.4h161.28z" />
<glyph unicode="&#xe93f;" glyph-name="plus_circle" data-tags="plus_circle [, 1425]" horiz-adv-x="1075" d="M591.36 435.2h161.28v-102.4h-161.28v-153.6h-107.52v153.6h-161.28v102.4h161.28v153.6h107.52v-153.6zM537.6-25.6c-237.135 0-430.080 183.757-430.080 409.6s192.945 409.6 430.080 409.6c237.135 0 430.080-183.757 430.080-409.6s-192.945-409.6-430.080-409.6v0zM537.6 896c-296.916 0-537.6-229.222-537.6-512s240.684-512 537.6-512c296.916 0 537.6 229.222 537.6 512s-240.684 512-537.6 512v0z" />
<glyph unicode="&#xe940;" glyph-name="profile" data-tags="profile [, 1335]" d="M512 384c-112.947 0-204.8 91.853-204.8 204.8s91.853 204.8 204.8 204.8c112.947 0 204.8-91.853 204.8-204.8s-91.853-204.8-204.8-204.8zM704.41 349.542c69.939 56.269 114.79 142.49 114.79 239.258 0 169.677-137.523 307.2-307.2 307.2s-307.2-137.523-307.2-307.2c0-96.768 44.851-182.989 114.79-239.258-187.341-70.4-319.59-244.326-319.59-477.542h102.4c0 256 183.757 409.6 409.6 409.6s409.6-153.6 409.6-409.6h102.4c0 233.216-132.25 407.142-319.59 477.542z" />
<glyph unicode="&#xe941;" glyph-name="profile1" data-tags="profile [, 1336]" d="M512 281.6c193.792 0 356.25-113.357 398.541-307.2h-797.082c42.291 193.843 204.749 307.2 398.541 307.2zM307.2 588.8c0 112.947 91.853 204.8 204.8 204.8s204.8-91.853 204.8-204.8c0-112.947-91.853-204.8-204.8-204.8s-204.8 91.853-204.8 204.8zM704.41 349.542c69.939 56.269 114.79 142.49 114.79 239.258 0 169.677-137.523 307.2-307.2 307.2s-307.2-137.523-307.2-307.2c0-96.768 44.851-182.989 114.79-239.258-187.341-70.4-319.59-244.326-319.59-477.542h1024c0 233.216-132.25 407.142-319.59 477.542z" />
<glyph unicode="&#xe942;" glyph-name="search_left" data-tags="search_left [, 1504]" horiz-adv-x="1075" d="M1075.2-55.603l-76.017-72.397-228.104 217.19 76.017 72.448 228.104-217.242zM430.080 179.2c-177.838 0-322.56 137.779-322.56 307.2 0 169.37 144.722 307.2 322.56 307.2s322.56-137.83 322.56-307.2c0-169.421-144.722-307.2-322.56-307.2v0zM430.080 896c-237.512 0-430.080-183.398-430.080-409.6s192.568-409.6 430.080-409.6c237.512 0 430.080 183.398 430.080 409.6s-192.568 409.6-430.080 409.6v0z" />
<glyph unicode="&#xe943;" glyph-name="search_left1" data-tags="search_left [, 1506]" horiz-adv-x="1075" d="M1075.2-55.603l-76.017-72.397-304.12 289.638 76.017 72.397 304.12-289.638zM376.32 281.6c-148.216 0-268.8 114.842-268.8 256s120.584 256 268.8 256c148.216 0 268.8-114.842 268.8-256s-120.584-256-268.8-256v0zM376.32 896c-207.836 0-376.32-160.461-376.32-358.4s168.484-358.4 376.32-358.4c207.836 0 376.32 160.461 376.32 358.4s-168.484 358.4-376.32 358.4v0z" />
<glyph unicode="&#xe944;" glyph-name="search_right" data-tags="search_right [, 1505]" horiz-adv-x="1075" d="M228.104 161.638l76.017-72.397-228.050-217.242-76.070 72.397 228.104 217.242zM645.12 179.2c-177.838 0-322.56 137.83-322.56 307.2 0 169.421 144.722 307.2 322.56 307.2 177.892 0 322.56-137.779 322.56-307.2 0-169.37-144.668-307.2-322.56-307.2v0zM645.12 896c-237.512 0-430.080-183.398-430.080-409.6s192.568-409.6 430.080-409.6c237.565 0 430.080 183.398 430.080 409.6s-192.515 409.6-430.080 409.6v0z" />
<glyph unicode="&#xe945;" glyph-name="search_right1" data-tags="search_right [, 1507]" horiz-adv-x="1075" d="M304.12 234.035l76.017-72.397-304.12-289.638-76.017 72.397 304.12 289.638zM698.88 281.6c-148.216 0-268.8 114.842-268.8 256s120.584 256 268.8 256c148.216 0 268.8-114.842 268.8-256s-120.584-256-268.8-256v0zM698.88 896c-207.836 0-376.32-160.461-376.32-358.4s168.484-358.4 376.32-358.4c207.836 0 376.32 160.461 376.32 358.4s-168.484 358.4-376.32 358.4v0z" />
<glyph unicode="&#xe946;" glyph-name="shopping_bag" data-tags="shopping_bag [, 1142]" d="M921.6 25.11c0-28.172-22.938-51.037-51.2-51.037h-716.8c-28.262 0-51.2 22.864-51.2 51.037v408.293c0 28.172 22.938 51.037 51.2 51.037h716.8c28.262 0 51.2-22.864 51.2-51.037v-408.293zM512 794.386c115.661 0 216.115-105.799 246.426-207.873h-497.51c22.886 102.073 128.41 207.873 251.085 207.873v0zM921.6 586.513h-57.549c-31.283 153.11-179.661 309.487-352.051 309.487-177.664 0-329.728-156.377-354.458-309.487h-55.142c-56.576 0-102.4-48.995-102.4-105.339v-510.367c0-56.395 45.824-98.807 102.4-98.807h819.2c56.576 0 102.4 42.412 102.4 98.807v510.367c0 56.345-45.824 105.339-102.4 105.339v0z" />
<glyph unicode="&#xe947;" glyph-name="shopping_bag1" data-tags="shopping_bag [, 1143]" d="M102.4-25.927v510.367h819.2v-510.367h-819.2zM509.696 794.386c115.661 0 216.115-105.799 246.426-207.873h-497.51c22.886 153.11 128.41 207.873 251.085 207.873v0zM861.747 586.513c-31.283 153.11-179.712 309.487-352.051 309.487-177.664 0-329.728-105.34-354.509-309.487h-155.187v-714.513h1024v714.513h-162.253z" />
<glyph unicode="&#xe948;" glyph-name="shopping_cart_round" data-tags="shopping_cart_round [, 1137]" horiz-adv-x="1078" d="M780.234-17.821h-481.603c-26.355 0-48.829 19.446-53.14 46.055l-64.35 394.661h725.315l-73.243-395.874c-4.851-26.002-27.055-44.843-52.979-44.843v0zM916.211 533.074l-190.087 335.385c-14.821 26.112-47.481 35.147-73.135 20.163v0c-25.923-15.094-34.816-48.864-19.887-75.197l158.612-280.351h-505.587l158.882 280.13c14.821 26.222 6.144 59.717-19.402 75.032l-0.485 0.275c-25.708 15.315-58.745 6.39-73.62-19.943l-189.817-335.495h-107.789c-29.804 0-53.895-24.68-53.895-55.089s24.091-55.090 53.895-55.090h17.947l74.806-458.841c8.677-53.106 53.625-92.054 106.334-92.054h571.877c52.709 0 97.711 38.948 106.334 92.054l74.806 458.841h18.001c29.75 0 53.895 24.68 53.895 55.090s-24.145 55.089-53.895 55.089h-107.789z" />
<glyph unicode="&#xe949;" glyph-name="showcase" data-tags="showcase [, 725]" d="M921.6 281.6h-819.2v409.6h819.2v-409.6zM921.6 793.6h-358.4v102.4h-102.4v-102.4h-460.8v-614.4h347.802l-143.155-307.2h112.64l143.514 307.2v-307.2h102.4v307.2l143.514-307.2h112.64l-143.155 307.2h347.802v614.4h-102.4z" />
<glyph unicode="&#xe94a;" glyph-name="left" data-tags="left" d="M976.387 431.615h-813.82l223.435 223.443c18.596 18.596 18.596 48.741 0 67.336-18.6 18.592-48.744 18.592-67.336 0l-304.717-304.724c-18.6-18.596-18.6-48.741 0-67.336l304.724-304.724c9.29-9.29 21.483-13.945 33.668-13.945s24.367 4.655 33.668 13.945c18.596 18.596 18.596 48.741 0 67.336l-223.443 223.443h813.82c26.294 0 47.613 21.323 47.613 47.613 0 26.294-21.319 47.613-47.613 47.613z" />
<glyph unicode="&#xe94b;" glyph-name="next" data-tags="next" d="M689.55 733.181c-13.95 14.438-37.168 14.438-51.606 0-13.95-13.95-13.95-37.168 0-51.086l261.674-261.674h-863.49c-20.129-0.033-36.128-16.032-36.128-36.16s15.999-36.648 36.128-36.648h863.49l-261.674-261.187c-13.95-14.438-13.95-37.689 0-51.606 14.438-14.438 37.689-14.438 51.606 0l323.622 323.622c14.438 13.95 14.438 37.168 0 51.086l-323.622 323.654z" />
<glyph unicode="&#xe94c;" glyph-name="right" data-tags="right" d="M1010.055 417.668l-304.726 304.726c-18.592 18.592-48.745 18.592-67.337 0-18.596-18.596-18.596-48.741 0-67.337l223.444-223.444h-813.823c-26.294 0-47.613-21.319-47.613-47.613 0-26.29 21.319-47.613 47.613-47.613h813.823l-223.436-223.444c-18.596-18.596-18.596-48.741 0-67.337 9.294-9.29 21.483-13.945 33.668-13.945s24.37 4.655 33.668 13.945l304.718 304.726c18.596 18.596 18.596 48.741 0 67.337z" />
</font>
</defs>
</svg>
